<svg xmlns="http://www.w3.org/2000/svg" fill="none" viewBox="0 0 512 512" height="512" width="512">
<g clip-path="url(#clip0_5_832)">
<rect fill="#262E35" height="512" width="512"></rect>
<line stroke-width="8" stroke="white" y2="443.828" x2="74.8284" y1="74.8284" x1="443.828"></line>
<path stroke="white" fill="white" d="M286.696 409.874H323.619V412.104H283.462V352.407H323.194V354.637H286.696H286.196V355.137V379.45V379.95H286.696H320.988V382.181H286.696H286.196V382.681V409.374V409.874H286.696ZM351.253 378.896L370.85 352.209L387.509 331.025L352.899 381.121L352.698 381.412L352.905 381.699L374.904 412.104H371.641L351.255 383.918L350.85 383.359L350.445 383.917L329.974 412.104H326.799L348.962 381.7L349.176 381.407L348.964 381.114L328.319 352.407H331.415L350.443 378.892L350.845 379.451L351.253 378.896ZM398.795 354.637H377.995V352.407H423.413V354.637H402.529H402.029V355.137V412.104H399.295V355.137V354.637H398.795Z"></path>
<path stroke="white" fill="white" d="M235.404 356.492L235.235 412.101H232.5V352.403H236.4L290.353 432.962L274.836 412.309L236.316 356.211L235.408 354.889L235.404 356.492Z"></path>
<path stroke="white" fill="white" d="M443.069 395.33C445.307 395.33 446.866 396.488 447.22 398.086H446.206C445.804 396.827 444.568 396.127 443.042 396.127C442.164 396.127 441.382 396.336 440.806 396.755C440.216 397.183 439.862 397.817 439.862 398.577C439.862 399.198 440.105 399.711 440.614 400.107C441.087 400.476 441.773 400.729 442.644 400.933C442.644 400.933 442.645 400.933 442.646 400.933L444.085 401.286L444.085 401.286L444.091 401.287C445.399 401.592 446.244 401.994 446.761 402.497C447.258 402.98 447.5 403.604 447.5 404.484C447.5 405.595 447.075 406.467 446.326 407.071C445.565 407.685 444.425 408.058 442.951 408.058C441.58 408.058 440.48 407.705 439.718 407.12C439.099 406.646 438.682 406.004 438.517 405.22H439.564C439.983 406.547 441.413 407.253 443.105 407.253C444.003 407.253 444.818 407.021 445.423 406.594C446.035 406.162 446.439 405.519 446.439 404.747C446.439 404.093 446.176 403.551 445.652 403.133C445.158 402.738 444.447 402.465 443.557 402.256C443.557 402.256 443.556 402.256 443.556 402.255L441.869 401.848L441.869 401.848L441.866 401.847C440.73 401.582 439.973 401.19 439.5 400.693C439.039 400.208 438.801 399.574 438.801 398.714C438.801 397.696 439.212 396.868 439.928 396.285C440.653 395.695 441.725 395.33 443.069 395.33ZM424.406 407.043C424.406 407.54 424.056 407.895 423.571 407.895C423.093 407.895 422.736 407.538 422.736 407.043C422.736 406.548 423.093 406.191 423.571 406.191C424.056 406.191 424.406 406.546 424.406 407.043ZM431.236 408.058C430.153 408.058 429.283 407.724 428.688 407.175C428.199 406.724 427.87 406.104 427.771 405.338H428.796C428.896 405.8 429.125 406.204 429.465 406.515C429.917 406.928 430.532 407.144 431.217 407.144C431.968 407.144 432.626 406.915 433.09 406.409C433.548 405.909 433.752 405.211 433.752 404.403V395.648H434.786V404.412C434.786 405.631 434.434 406.529 433.851 407.121C433.269 407.712 432.398 408.058 431.236 408.058Z"></path>
<path fill="white" d="M210.352 115.211C208.505 114.577 206.592 113.977 204.622 113.409C204.946 112.091 205.243 110.789 205.507 109.51C209.844 88.5046 207.008 71.5821 197.324 66.0107C188.038 60.6683 172.852 66.2386 157.515 79.5551C156.04 80.8356 154.561 82.1915 153.082 83.6124C152.097 82.6723 151.114 81.7638 150.133 80.8948C134.059 66.6558 117.947 60.6553 108.272 66.243C98.9954 71.6008 96.2481 87.5094 100.152 107.417C100.529 109.34 100.97 111.303 101.469 113.3C99.1883 113.945 96.987 114.634 94.8805 115.366C76.0354 121.921 64 132.194 64 142.851C64 153.856 76.92 164.895 96.5488 171.588C98.0978 172.116 99.7051 172.616 101.361 173.09C100.824 175.249 100.356 177.365 99.9636 179.429C96.2407 198.991 99.148 214.524 108.4 219.848C117.957 225.346 133.996 219.694 149.614 206.074C150.848 204.998 152.087 203.856 153.328 202.659C154.937 204.205 156.543 205.667 158.14 207.039C173.268 220.027 188.209 225.271 197.453 219.932C207 214.418 210.103 197.732 206.075 177.431C205.767 175.881 205.409 174.297 205.007 172.684C206.133 172.352 207.239 172.009 208.317 171.653C228.723 164.907 242 154.003 242 142.851C242 132.156 229.577 121.814 210.352 115.211ZM205.926 164.452C204.953 164.773 203.954 165.084 202.936 165.385C200.683 158.27 197.643 150.704 193.922 142.887C197.473 135.257 200.396 127.788 202.585 120.719C204.406 121.244 206.174 121.799 207.877 122.384C224.348 128.041 234.396 136.406 234.396 142.851C234.396 149.715 223.545 158.627 205.926 164.452ZM198.615 178.904C200.396 187.881 200.651 195.997 199.471 202.342C198.411 208.043 196.279 211.844 193.643 213.367C188.033 216.606 176.037 212.395 163.1 201.288C161.616 200.015 160.122 198.655 158.624 197.217C163.639 191.744 168.652 185.382 173.544 178.316C182.149 177.554 190.279 176.309 197.652 174.609C198.015 176.07 198.337 177.503 198.615 178.904ZM124.684 212.807C119.203 214.738 114.839 214.793 112.2 213.275C106.585 210.044 104.251 197.573 107.435 180.844C107.8 178.928 108.234 176.96 108.734 174.948C116.026 176.557 124.096 177.715 132.721 178.412C137.647 185.326 142.804 191.681 148.002 197.246C146.866 198.34 145.735 199.381 144.61 200.362C137.704 206.385 130.783 210.658 124.684 212.807ZM99.0081 164.41C90.3287 161.45 83.1608 157.603 78.2476 153.406C73.8327 149.634 71.6038 145.889 71.6038 142.851C71.6038 136.384 81.2669 128.136 97.3835 122.53C99.3391 121.85 101.386 121.209 103.511 120.607C105.738 127.835 108.66 135.393 112.186 143.035C108.614 150.791 105.651 158.469 103.402 165.782C101.887 165.348 100.42 164.891 99.0081 164.41ZM107.615 105.96C104.27 88.9038 106.491 76.0372 112.082 72.8086C118.037 69.3692 131.205 74.2731 145.084 86.5678C145.971 87.3536 146.862 88.1761 147.755 89.027C142.583 94.5673 137.473 100.875 132.591 107.748C124.22 108.522 116.206 109.766 108.839 111.431C108.375 109.572 107.965 107.745 107.615 105.96ZM184.396 124.875C182.635 121.84 180.827 118.876 178.983 115.994C184.663 116.71 190.104 117.661 195.214 118.824C193.68 123.73 191.768 128.858 189.517 134.116C187.902 131.058 186.194 127.974 184.396 124.875ZM153.085 94.4488C156.592 98.2397 160.105 102.472 163.56 107.065C160.078 106.901 156.554 106.815 153 106.815C149.48 106.815 145.981 106.899 142.521 107.06C145.98 102.51 149.523 98.2833 153.085 94.4488ZM121.573 124.927C119.814 127.971 118.138 131.038 116.548 134.11C114.334 128.871 112.44 123.719 110.892 118.744C115.971 117.61 121.387 116.683 127.03 115.98C125.16 118.89 123.337 121.875 121.573 124.927ZM127.192 170.261C121.362 169.613 115.865 168.733 110.787 167.631C112.36 162.567 114.296 157.305 116.557 151.953C118.15 155.023 119.833 158.091 121.603 161.142C123.406 164.249 125.275 167.293 127.192 170.261ZM153.295 191.787C149.691 187.907 146.096 183.616 142.585 179C145.994 179.134 149.469 179.202 153 179.202C156.628 179.202 160.215 179.12 163.745 178.964C160.279 183.663 156.779 187.96 153.295 191.787ZM189.589 151.68C191.969 157.09 193.974 162.325 195.566 167.302C190.406 168.477 184.833 169.423 178.962 170.126C180.81 167.204 182.634 164.19 184.426 161.089C186.24 157.952 187.961 154.811 189.589 151.68ZM177.84 157.299C175.057 162.113 172.201 166.707 169.301 171.045C164.019 171.421 158.562 171.615 153 171.615C147.461 171.615 142.073 171.444 136.884 171.108C133.867 166.714 130.948 162.105 128.184 157.341C125.426 152.589 122.889 147.797 120.589 143.032C122.888 138.257 125.42 133.459 128.161 128.716L128.16 128.717C130.909 123.962 133.803 119.376 136.792 115.009C142.085 114.61 147.514 114.402 153 114.402C158.51 114.402 163.946 114.612 169.238 115.014C172.182 119.349 175.055 123.92 177.815 128.676C180.606 133.486 183.17 138.251 185.488 142.925C183.176 147.679 180.618 152.492 177.84 157.299ZM193.526 72.583C199.487 76.0123 201.805 89.843 198.06 107.979C197.821 109.136 197.552 110.315 197.26 111.51C189.875 109.81 181.856 108.545 173.46 107.759C168.569 100.81 163.5 94.4927 158.413 89.0236C159.781 87.7108 161.147 86.459 162.507 85.2779C175.648 73.8683 187.93 69.3635 193.526 72.583ZM153 126.993C161.778 126.993 168.895 134.092 168.895 142.851C168.895 151.608 161.778 158.708 153 158.708C144.222 158.708 137.105 151.608 137.105 142.851C137.105 134.092 144.222 126.993 153 126.993Z"></path>
</g>
<defs>
<clipPath id="clip0_5_832">
<rect fill="white" height="512" width="512"></rect>
</clipPath>
</defs>
</svg>
